<?xml version="1.0" encoding="utf-8"?>
<!-- Generator: Adobe Illustrator 25.4.1, SVG Export Plug-In . SVG Version: 6.00 Build 0)  -->
<svg version="1.1" id="Capa_1" xmlns="http://www.w3.org/2000/svg" xmlns:xlink="http://www.w3.org/1999/xlink" x="0px" y="0px"
	 viewBox="0 0 36 45" style="enable-background:new 0 0 36 45;" xml:space="preserve">
<style type="text/css">
	.st0{clip-path:url(#SVGID_00000010283292149838077440000003796855412609049767_);}
	.st1{fill:#003B33;}
</style>
<g>
	<defs>
		<rect id="SVGID_1_" width="36" height="45"/>
	</defs>
	<clipPath id="SVGID_00000044870407032629963020000001086629525005013896_">
		<use xlink:href="#SVGID_1_"  style="overflow:visible;"/>
	</clipPath>
	<g style="clip-path:url(#SVGID_00000044870407032629963020000001086629525005013896_);">
		<path class="st1" d="M36,11.4l-0.4,0.1c-0.1,0-0.2,0-0.3,0.1c-5.6,1.6-10.5,3.6-15,6.2c-4.2,2.5-7.5,5.2-9.9,8.4
			c-0.3,0.4-0.4,0.8-0.4,1.2c0,2.2,0,4.3,0,6.5v4.9c0,2,0,4,0,6V45h2.2v-0.3c0-0.1,0-0.2,0-0.3v-0.1c0-1.3,0-2.7,0-4
			c0-3.9,0-7.8,0-11.8c0-0.4,0.1-0.8,0.2-1.2c0.1-0.4,0.4-0.7,0.6-1c2.2-2.5,5-4.8,8.4-6.8c4.2-2.5,8.9-4.4,14.3-6l0.2-0.1L36,11.4z
			"/>
		<path class="st1" d="M0,0v0.3c0,14.7,0,29.4,0,44.2v0.4l2.2,0V0.4V0L0,0z"/>
		<path class="st1" d="M10.7,15.2c0.1,0.1,0.3,0.1,0.4,0.1c0.2,0,0.3-0.1,0.5-0.1c0.2-0.1,0.3-0.2,0.4-0.3c1.8-1.8,4-3.4,6.9-4.9
			c4-2.2,8.4-3.9,14.4-5.6c0.4-0.1,0.8-0.2,1.3-0.3c0.4-0.1,0.7-0.2,1.1-0.3l0.2-0.1V3.3c0-0.5,0-1,0-1.5V1.4l-0.4,0.1
			c-0.1,0-0.2,0-0.3,0.1L33.6,2c-1.2,0.3-2.4,0.7-3.6,1C25,4.6,20.9,6.3,17.2,8.4c-1.8,1-3.4,2.1-5,3.4V0.1l-2.2,0v4.4
			c0,3.2,0,6.4,0,9.6C10.1,14.3,10.1,14.9,10.7,15.2z"/>
		<path class="st1" d="M35.5,6.1c-1.2,0.4-3.7,1.3-3.7,1.3l-0.3,0.1l0.8,2l0.3-0.1c0,0,2.1-0.7,3.1-1.1L36,8.2V8c0-0.5,0-1,0-1.6
			V5.9L35.5,6.1z"/>
		<path class="st1" d="M18.9,15.8l3.8-2.1l-1-1.9l-3.8,2.1L18.9,15.8z"/>
		<path class="st1" d="M25.4,12.4l4-1.8l-0.8-2l-4.1,1.8L25.4,12.4z"/>
		<path class="st1" d="M12.9,20l3.3-2.5L15,15.7l-3.5,2.6L12.9,20z"/>
		<path class="st1" d="M5.1,38.3l2.2,0.1v-4.2l-2.2,0.1v0.3c0,0,0,1.1,0,1.7v0.3c0,0.6,0,1.4,0,1.4L5.1,38.3z"/>
		<path class="st1" d="M7.2,30.9c0,0,0-1.1,0-1.6V29v-1.6l-2.2,0v3.8l2.2,0V30.9z"/>
		<path class="st1" d="M7.2,10.5v-0.3c0,0,0-1.1,0-1.7V8.2c0-0.6,0-1.3,0-1.3V6.5H5v4.1L7.2,10.5z"/>
		<path class="st1" d="M5.3,17.6c0.2,0.1,0.3,0.1,0.5,0.1c0.4,0,0.8-0.1,1.2-0.3l0.2-0.1v-0.2c0,0,0-1.1,0-1.6v-0.3
			c0-0.6,0-1.3,0-1.3v-0.3l-2.2,0v0.3c0,0,0,2.2,0,3.3c0,0.1,0,0.2,0.1,0.2C5.1,17.4,5.2,17.5,5.3,17.6z"/>
		<path class="st1" d="M7.2,20.4l-2.2,0v0.3c0,0,0,1.1,0,1.6v0.3C5,23.3,5,24,5,24v0.3l2.2,0L7.2,20.4z"/>
		<path class="st1" d="M7.2,3.3c0,0,0-1.1,0-1.6V1.3V1.2c0-0.3,0-0.6,0-0.9V0L5,0v0.3c0,1,0,3,0,3v0.3l2.2,0L7.2,3.3z"/>
		<path class="st1" d="M7.3,42.8c0-0.5,0-1.3,0-1.3v-0.3H5.1v0.3c0,0,0,2,0,3.1V45l2.2,0v-0.3c0-0.3,0-0.7,0-1L7.3,42.8L7.3,42.8z"
			/>
	</g>
</g>
</svg>
