<?xml version="1.0" encoding="utf-8"?>
<!-- Generator: Adobe Illustrator 25.4.1, SVG Export Plug-In . SVG Version: 6.00 Build 0)  -->
<svg version="1.1" id="Capa_1" xmlns="http://www.w3.org/2000/svg" xmlns:xlink="http://www.w3.org/1999/xlink" x="0px" y="0px"
	 viewBox="0 0 1119.5 693" style="enable-background:new 0 0 1119.5 693;" xml:space="preserve">
<style type="text/css">
	.st0{fill:#F8EEDF;}
	.st1{fill:#F7AD5B;}
</style>
<g>
	<g>
		<g>
			<g>
				<path class="st0" d="M264.8,304.7l1.4-0.1c0.1,5.2,3.6,9.3,10.6,9.3c5.8,0,9.2-2.9,9.2-7.3c0-5.1-3-6.5-7.6-7.3l-4.8-0.9
					c-4.6-0.9-7.4-3.5-7.4-7.7c-0.1-5.2,3.7-8.6,10-8.6c5.9,0,10.5,2.7,10.7,9.6l-1.4,0.1c-0.3-6.1-3.8-8.5-9.3-8.5
					c-5.4,0-8.6,2.9-8.5,7.3c0,3.3,2,5.8,6.7,6.6l4.8,0.9c4.7,0.8,8.3,2.8,8.3,8.3c0,5.9-4.6,8.8-10.7,8.8
					C269.1,315.1,265,310.7,264.8,304.7"/>
			</g>
			<g>
				<path class="st0" d="M311.2,304.9h-15.6l-3.6,9.5h-1.5l12.1-31.5h1.4l12.1,31.5h-1.5L311.2,304.9z M310.7,303.6l-5.5-14.5
					c-1-2.7-1.4-3.7-1.7-4.9h-0.1c-0.4,1.2-0.8,2.2-1.8,4.9l-5.5,14.5H310.7z"/>
			</g>
			<g>
				<path class="st0" d="M321.8,282.8h1.7l17.9,27c0.6,0.9,1.1,1.7,1.6,2.6h0c0-1,0-2,0-3.1v-26.5h1.4v31.5h-1.7l-18-27.1
					c-0.6-0.9-1.1-1.7-1.6-2.7h0c0,1,0.1,2,0.1,3.1v26.7h-1.4V282.8z"/>
			</g>
			<g>
				<rect x="364.9" y="282.8" class="st0" width="1.4" height="31.5"/>
			</g>
			<g>
				<path class="st0" d="M373.2,298.5c0-9.5,4.8-16.4,13.5-16.4c8.7,0,11.3,6.1,11.8,9.6l-1.4,0.1c-0.6-3.5-2.9-8.5-10.5-8.5
					c-7.6,0-11.9,6.3-11.9,15.3c0,8.3,3.8,15.2,11.9,15.2c9.2,0,11.1-8.2,11.1-11.6v-2.6h-11.3v-1.3h12.7v15.9H398l-0.2-7.4
					c-1.6,5-5.7,8.2-11.5,8.2C377.8,315.1,373.2,307.9,373.2,298.5"/>
			</g>
			<g>
				<path class="st0" d="M406.8,282.8h1.7l17.9,27c0.6,0.9,1.1,1.7,1.6,2.6h0c0-1,0-2,0-3.1v-26.5h1.4v31.5h-1.7l-18-27.1
					c-0.6-0.9-1.1-1.7-1.6-2.7h0c0,1,0.1,2,0.1,3.1v26.7h-1.4V282.8z"/>
			</g>
			<g>
				<path class="st0" d="M455.6,304.9H440l-3.6,9.5H435l12.1-31.5h1.4l12.1,31.5h-1.5L455.6,304.9z M455.1,303.6l-5.5-14.5
					c-1-2.7-1.4-3.7-1.7-4.9h-0.1c-0.4,1.2-0.8,2.2-1.8,4.9l-5.5,14.5H455.1z"/>
			</g>
			<g>
				<path class="st0" d="M462.9,298.5c0-9.8,4.9-16.4,13.8-16.4c7.3,0,11.4,4.7,12.2,11.2l-1.5,0.1c-0.8-6-4.5-10-10.7-10
					c-7.7,0-12.3,6.1-12.3,15.1c0,8.7,4,15.4,12.3,15.4c5.9,0,9.7-3.7,10.8-9.6l1.4,0.1c-1.2,6-4.7,10.8-12.3,10.8
					C467,315.1,462.9,307.6,462.9,298.5"/>
			</g>
			<g>
				<rect x="495.9" y="282.8" class="st0" width="1.4" height="31.5"/>
			</g>
			<g>
				<path class="st0" d="M504.1,298.6c0-10.1,5.4-16.5,13.8-16.5c8.3,0,13.7,6.4,13.7,16.5c0,10-5.4,16.5-13.7,16.5
					C509.5,315.1,504.1,308.5,504.1,298.6 M530.1,298.6c0-9.1-4.7-15.3-12.2-15.3c-7.6,0-12.3,6.2-12.3,15.3
					c0,8.9,4.8,15.3,12.3,15.3C525.4,313.9,530.1,307.7,530.1,298.6"/>
			</g>
			<g>
				<polygon class="st0" points="275.3,263 271.5,263 271.5,273.8 270.6,273.8 270.6,263 266.7,263 266.7,262.3 275.3,262.3 				"/>
			</g>
			<g>
				<polygon class="st0" points="283.9,273 283.9,273.8 276.9,273.8 276.9,262.3 283.8,262.3 283.8,263 277.8,263 277.8,267.5 
					283.5,267.5 283.5,268.3 277.8,268.3 277.8,273 				"/>
			</g>
			<g>
				<path class="st0" d="M290.3,268.7h-3v5.1h-0.9v-11.5h4c2.9,0,3.6,1.6,3.6,3.2c0,1.3-0.7,2.8-2.7,3.1l3.1,5.2h-1L290.3,268.7z
					 M287.3,267.9h3c2,0,2.8-1.1,2.8-2.5c0-1.4-0.7-2.4-2.8-2.4h-3V267.9z"/>
			</g>
			<g>
				<path class="st0" d="M300.6,268.7h-3v5.1h-0.9v-11.5h4c2.9,0,3.6,1.6,3.6,3.2c0,1.3-0.7,2.8-2.7,3.1l3.1,5.2h-1L300.6,268.7z
					 M297.5,267.9h3c2,0,2.8-1.1,2.8-2.5c0-1.4-0.7-2.4-2.8-2.4h-3V267.9z"/>
			</g>
			<g>
				<polygon class="st0" points="313.9,273 313.9,273.8 306.9,273.8 306.9,262.3 313.8,262.3 313.8,263 307.8,263 307.8,267.5 
					313.5,267.5 313.5,268.3 307.8,268.3 307.8,273 				"/>
			</g>
			<g>
				<path class="st0" d="M316.4,262.3h1.1l5.9,9.3c0.2,0.4,0.4,0.8,0.6,1.2h0c0-0.4,0-0.8,0-1.3v-9.2h0.8v11.5h-1.1l-6-9.4
					c-0.3-0.4-0.5-0.7-0.6-1.2h0c0,0.4,0,0.8,0,1.3v9.2h-0.8V262.3z"/>
			</g>
			<g>
				<path class="st0" d="M327.1,268c0-3.7,2-6,5.1-6c3.1,0,5.1,2.3,5.1,6c0,3.7-2,6-5.1,6C329.2,274.1,327.1,271.7,327.1,268
					 M336.4,268c0-3.2-1.6-5.3-4.2-5.3c-2.6,0-4.2,2.1-4.2,5.3c0,3.1,1.6,5.3,4.2,5.3C334.8,273.3,336.4,271.2,336.4,268"/>
			</g>
			<g>
				<path class="st0" d="M1090.2,434.7c-11.4-1.2-22.8-2.9-34.2-4.2c-4.2-0.5-8.5-1.1-12.3,1.8c-3.2,2.5-6.9,4.5-10,7.1
					c-4,3.3-8.4,3.5-13.2,2.9c-19.7-2.6-38.8-5.6-58.7-2.5c-2.6,0.4-5.2,0.9-7.7,1.4c-8.6,1.6-17.1,3-25.8,4.3
					c-9.2,1.3-18.4,2.3-27.6,3.9c-7.3,1.2-14.7,1.5-21.6,4.9c-7,3.4-13.8,7.7-21.2,10c-8.6,2.7-12.3,8.8-15.1,16.4
					c-0.1,0.3-0.2,0.7-0.4,1.1c-2.9,6-5.8,12.1-8.8,18.1c-2,4.1-5.2,6.5-9.7,7.6c-7.8,2-15.4,4.2-23.1,6.4c-3.7,1-3.8,1-2.8-2.5
					c0.4-1.4,5.9-63.7,6.5-70.7c0.6-7.7,1.3-15.5,1.7-23.3c0.3-5.5,0.2-11.2,1.1-16.6c1-6.3,1-12.7,1.2-19
					c0.1-5.8,0.1-10.6-4.2-15.1c-3-3.1-5.5-6.3-7.8-10c-4.1-6.6-8.8-12.9-10.2-20.9c-0.5-3.1-0.8-6.3-2.4-9.1
					c-6.5-11.1-13.6-22.4-19.5-34.1c-6.3-12.3-11.2-25.3-16.6-38c-3.4-7.9-21.7-50.5-24.2-56.1c-2.6-5.9-5.1-11.9-7.6-17.9
					c-3-7-6.1-13.8-11.2-19.8c-5.3-6.2-10.5-12.5-15.5-19c-2.8-3.7-5.5-7.5-8.2-11.2c-2-2.9-13.7-18.6-10.9-21.3
					c0.9-0.9,2.3-1.1,3.6-1.2c11.4-1,22.3-5,33.5-7c17.3-3.1,34.5-7.2,51.4-12.2c8.4-2.5,16.8-5.3,25.1-8.4
					c7.1-2.6,14.3-6.9,21.8-7.9c5.6-0.8,11.3-1.5,16.9-2.2c19.6-2.3,40.7-5.4,60.1-8.4c36.6-5.7,93.8-14.1,112.8-17.1
					c16.1-2.5,32.4-4.3,48.6-6.1c16.1-1.8,32-4.2,48.1-5.8c4.7-0.5,9.5-0.9,14.3-1.2c4.3-0.3,8.4,0.1,12.6,0.1
					c0.4,0.1,0.9,0.2,1.3,0c1.6-0.5,0.9-3.5-0.1-4.1c-1.1-0.7-4.5-0.1-5.8-0.1c-2.1,0-4.3-0.1-6.4-0.1c-0.7,0-1.4,0-2.1,0
					c-7.3,0-14.6,0.3-21.8,0.7c-19,1.2-37.7,4.7-56.5,7.2c-19.6,2.6-39.1,5.4-58.7,8.5c-33.5,5.3-66.8,11.7-100.3,16.9
					c-2.4,0.4-4.8,0.8-7.2,1.1c-11.2,1.3-22.4,2.8-33.7,4.2c-8,1-16.1,1.3-24.1,2.8c-8,1.5-15.4,4.5-23.1,7.1
					c-28.8,9.7-58.6,17.2-88.3,23.6c-3.9,0.8-7.9,1.4-11.9,1.5c-3,0.1-6.2-0.1-9,1.2c-3.7,1.7-6.1,5.5-9.6,7.1
					c-3.3,1.5-7.5,0.5-11,0.5c-14.7-0.2-37.7,1.2-48.5,12.7c-7.1,5.9-20,7.5-28.8,8c-7.2,0.4-13.9-1.8-20.9-1.9
					c-13.2-0.2-26.4,1.9-39.4,4.2c-59.5,10.4-118.1,25.2-177.2,37.5c-27.8,5.8-56.3,11.2-83.8,19.3c-27.2,8-52.5,19.9-76.4,35.1
					c-10.4,6.6-20.4,13.6-30.3,20.9c-11.6,8.6-24.5,14.3-37.2,21c-8.5,4.5-16.8,10.4-21.1,19c9.1-3.2,17.3-8.3,25.5-13.3
					c9.6-5.9,19.3-11.8,28.9-17.8c5.4-3.3,10.9-6.7,16.2-10.3c8.4-5.7,16.4-12.1,25-17.4c9.7-6,20.8-9,30.6-15.1
					c9.3-5.8,20.5-8.5,30.7-12.5c10.6-4.2,23.1-7.7,34.3-10.1c64.2-13.7,124.9-28.9,189.2-42.6c32.6-6.9,65.8-13.9,99-12
					c0,0.3,0,0.7,0.1,1c2,16.1,3.7,32.2,5.1,48.4c0.7,8.1,1.3,16.2,1.9,24.3c0.8,12.3,2.7,24.5,3.7,36.9c1.2,14,3.1,27.9,4.8,41.8
					c0.7,5,0.9,10,1.4,14.9c1,8.7,2,17.3,3.1,25.9c0.9,7.3,2,14.7,3.1,22c0.9,5.9,1.9,11.7,2.9,17.5c1.7,9.9,2,20,3.8,29.8
					c1.4,8,3.4,15.8,4.7,23.9c2.2,13,4.8,26.1,6.2,39.3c2.2,21.4,6.6,42.7,10.1,64c0.5,3.3,0,4.3-3.2,4.3c-6.1,0-12.3,1.5-18.3,2.3
					c-1.9,0.3-4.4,0.3-6,1.4c-1.4,1-2.6,2.6-3.5,4c-1.9,3-3,6.4-4.5,9.7c-2,4.2-3.8,8.5-5.3,12.9c-1.1,3.2-3.5,11.2-5.2,16.7
					c-1.7,4-6.9,15-8.2,18.7c-2.3,6.9-6.2,13.1-9.6,19.5c-2.2,4.1-4.2,4.4-8.2,2.1c-0.8-0.5-1.5-1-2.3-1.5
					c-2.2-1.4-42.6-28.8-45-29.6c-2.1-0.6-9.9-3.9-11.9-4.7c-6.4-2.5-12.6-5.4-18.9-8.2c-5.4-2.4-10.8-4.9-16.3-7.3
					c-0.2-0.1-0.5-0.2-0.8-0.4c-0.1-0.1-0.4-0.2-0.7-0.3c-3.9-0.8-7.5-3-11.1-4.7c-3.9-1.9-7.9-3-12.2-3.6c-4.5-0.7-9-1.8-13.5-2.3
					c-4.7-0.5-9.5-0.3-14.1-0.8c-5.5-0.6-11-1.4-16.5-2.5c-7.3-1.5-14.7-2.8-22.1-2.4c-10.6,0.7-21.1-0.2-31.8,1.2
					c-11.1,1.4-21.5,4.3-32.2,7.4c-11.1,3.2-22.7,4.4-33.7,8.3c-14.8,5.3-29.1,12.5-44.7,15.5c-2.5,0.5-3.2-0.1-5.5-1.6
					c-1.1-0.7-2.1-1.5-3.2-2.3c-6.6-4.8-12.9-10-19.3-15.1c-8.7-7-17.6-13.6-26.4-20.5c-10.1-7.9-20.2-15.8-30.3-23.6
					c-6.3-4.9-12.6-9.8-18.1-15.7c-5.3-5.7-10.2-11.8-16-17.1c-2.4-2.1-4.4-4.5-6.6-6.9c-2.3-2.4-8.4-9.9-7.4-1.7
					c0.4,3.6,6.5,7.7,8.9,10.1c3.9,3.9,7.9,7.8,11.8,11.8c4.8,4.9,9,10.3,14,15c5,4.6,10.8,8.1,16.1,12.3c19,15.1,38.6,29.3,57.1,45
					c6.7,5.7,15.5,9.9,19.8,18c1.9,3.5,1.3,5.9,0.3,9.7c-1.2,4.2-3.3,6.7-6.9,9.3c-6.7,4.7-13.4,9.3-20.2,13.9
					c-3.1,2.1-6.5,4-9.2,6.6c-2.8,2.8-5.4,5.8-8.2,8.6c-1.6,1.5-10.9,10.6-12.4,12c-5.9,5.2-11.8,10.4-17.6,15.7
					c-5.2,4.9-9.8,9.3-12.4,16.1c-1.7,4.3-2.9,8.9-4.1,13.5c1.6,0,3.3,0,4.9,0c0.5-1.8,1-3.5,1.5-5.3c0.7-2.3,1.3-4.6,2.2-6.8
					c1.4-3.8,3.6-7.3,6.4-10.4c2.8-3.2,6.3-5.7,9.6-8.4c4.5-3.7,8.5-7.8,12.7-11.7c3.1-2.9,3.2-2.8,6.1,0.3c1.9,2,4,3.9,5.8,6.1
					c1.9,2.3-1.2,5.7-2.1,7.2c-2.7,4.2-11.4,17.4-19,29.1c1.1,0,2.2,0,3.3,0c5.8-8.7,11.3-16.9,12.1-18c3-4.2,5.5-8.9,9.5-12.3
					c1.1-1,2.1-2.2,3.8-2.2c6.7-0.2,13.3-1.5,19.9-2.2c9.5-1,19.5-2.1,29.1-3.2c5.1-0.6,10.1-1.3,15.1-1.9
					c3.2-0.4,10.3-3.2,12.8-0.4c2.1,2.3,2.9,6,4,9.1c3.7,10.4,7.3,20.8,11,31.3c1.1,0,2.2,0,3.4,0c-0.7-2.2-1.4-4.5-2.1-6.7
					c-3.4-10.6-7.4-21.1-11.1-31.6c-1.1-3.3-1-3.7,2.6-4.4c6.6-1.3,13.2-2.4,19.7-3.5c18.3-3.2,36.6-6.4,54.9-9.6
					c1.1-0.2,2.3-0.3,3.3-0.1c7.4,1.7,14.9,0.5,22.3,0.9c3.1,0.2,5.9-0.6,8.7-1.7c9.4-3.6,18.9-6.9,28.1-10.9
					c5.6-2.5,10.5-1.6,15.5,0.8c6.9,3.4,13.7,6.7,20.5,10.2c3.6,1.9,7.1,2.9,11.2,2.7c12.4-0.6,24.9,0.6,37.3,1.1
					c8.8,0.3,16.9,2.9,25.1,5.7c5,1.7,14.8,4.4,12.4,11.4c-1.1,3.3-0.7,6.9-1.6,10.3c-0.9,3.3-2.4,6.4-4.1,9.4
					c-3.4,5.6-7.7,10.6-11.5,15.9c2.3,0,4.5,0,6.7,0c4.3-5.8,7.6-12.2,11.4-18.2c2.2-3.5,3.5-7.4,3.5-11.6c-0.1-3.8,1.3-6.8,4.9-8.7
					c9.8-5.2,13.3-17.7,19.1-26.4c0.6-0.8,1.3-1.9,2.5-1.7c0.6,0.1,1.1,0.5,1.6,0.8c6.4,4.4,12.6,8.9,19.3,12.9
					c7,4.1,14.1,8.1,20.7,12.8c2.3,1.6,4.9,3.5,6.2,6c1.8,3.3,0.5,9.2,0.1,12.8c-0.5,5.5-0.8,11.2-2.6,16.6
					c-0.6,1.8-1.4,3.3-2.4,4.8c1.8,0,3.5,0,5.3,0c2.1-6.1,2.5-12.8,3.8-19c0.7-3.3,0.9-6.7,1.1-10c0.5-8.1,1.2-16.2,2.1-24.2
					c0.3-3.3,0.7-6.7,2.3-9.7c3.4-6.7,11.8-9.7,19.3-8.9c1.7,0.2,3.5,0.5,5-0.3c2.8-1.5,2.6-5.4,2.1-8.5c-2.4-14.3-4.9-28.7-7.2-43
					c-1.8-11.5-3.2-23.1-5.2-34.6c-0.4-2.1,0.5-2.5,2.3-2.7c4.3-0.5,7.9,0.8,11.6,2.9c6.8,3.8,13.4,8,20.7,11
					c12.4,5.1,25.1,9.2,37.7,13.8c11.4,4.2,20.5,10.9,27.5,20.7c0.9,1.2,1.7,2.5,2,3.9c1.6,5.7,3.5,11.7,3.8,17.7
					c0.2,3.7,0.3,7.4,0.1,11.1c-0.1,3.2,0.1,6.9-0.5,10c-1.5,6.9-2.1,14-3.3,21c-1.3,7.3-2.2,14.7-3.1,22.1
					c-0.5,4.6-1.2,9.4-1.7,14.1c-0.3,2.5-0.6,4.9-0.9,7.4c-0.2,1.7-0.3,3.5-0.4,5.4c3,0,6.1,0,8.9,0c-1.7-1.5-3-3.3-3-5.6
					c-0.1-5.6,0.9-11.4,1.5-17c1.2-10.8,2.8-21.4,4.8-32c3.3-18.1,4-37.3-1.8-55c-2-6-0.2-9.9,3.7-13.8c0.7-0.7,1.3-1.3,1.9-2
					c3-3,5.8-6.3,8.7-9.4c5.2-5.6,10.5-11.3,15.7-17c2.6-2.8,5.2-5.7,7.8-8.5c1.9-2.2,3.8-4.5,6.5-5.8c0.5-0.2,1-0.4,1.6-0.6
					c7.3-2.2,14.6-4.5,21.9-6.7c10.7-3.2,21.4-6.3,32.1-9.4c3-0.9,5.4-2.4,6.8-5.3c4.3-9.3,8.9-18.5,12.8-27.9
					c1.6-3.8,3.9-6.1,7.5-7.7c7.9-3.7,15.8-7.6,23.7-11.2c3.9-1.8,8-2.9,12.3-3.4c9-1,18-2.6,27-3.9c2,0,4.1-0.6,6.1-0.9
					c2.1-0.3,4.2-0.6,6.4-0.9c4.1-0.6,8.2-1.1,12.2-1.7c8.4-1.3,16.9-2.5,25.4-3.5c4.6-0.5,9.3-1.4,13.9-1.2
					c4.7,0.1,9.4,0.8,14.1,1.3c7.9,1,15.8,1.7,23.7,2.9c5.1,0.7,9.9,0.5,14.2-3.1c3.2-2.8,6.9-5,10.3-7.6c1.7-1.3,3.3-1.9,5.6-1.6
					c10.7,1.4,21.4,2.6,32,3.8c10.2,1.2,20.1,3.3,29.8,6.9c2.4,0.9,4.8,0.7,7.2,0.7v-4.5c-1.9,0.1-3.7-0.4-5.5-0.8
					C1107.2,438.4,1099,435.6,1090.2,434.7z M248.6,648.1c-8.7,0.9-17.3,1.8-26,3.1c-8.1,1.2-16.2,1.7-24.3,2.5
					c-4.2,0.5-8.5,1-12.7,1.8c-4.2,0.8-8.5,0.7-11.8-2.3c-1.9-1.7-5.5-4.5-6.6-6.8c-0.3-0.4-0.5-0.8-0.5-1.3
					c0.1-1.7,2.8-3.7,3.8-4.8c8.2-8.8,17.8-16.1,27.5-23.2c8.4-6.1,19.4-11.3,20.6-22.7c0.3-2.6-0.4-6.1,1.3-8.4
					c1.6-2.1,4.5-3,7.1-2.8c3.1,0.3,4.4,2.4,5.4,5.2c3.9,11.1,9.2,22,12.4,33.3c2.1,7.1,4.9,14,7.3,21.1
					C253.5,647.2,253.1,647.6,248.6,648.1z M539.3,636.8c-0.2,0.4-0.5,0.7-0.7,1c-0.6,1.2-1.3,2.4-2,3.7c-1.5,2.6-7.6,10.8-11.4,7.9
					c-2.9-2.3-3.5-5.3-7.8-6.2c-3.7-0.8-7.2-2-10.9-2.9c-1.3-0.3-7.1-2-9-2.6c-2.1-0.6-3.8-1.5-6-1.6c-2.6-0.2-5.3-0.2-7.9-0.3
					c-11.1,0-22.2-1.6-33.3-1c-5.6,0.3-10.6-1.2-15.5-3.7c-6.8-3.5-13.5-7-20.7-9.9c-5.2-2.1-10.2-2.4-15.6-0.1
					c-8.5,3.7-17.3,6.7-26,10.1c-4.6,1.8-9.2,2.5-14.2,2.4c-8.6-0.2-17.2-0.8-25.7,0.2c-12.2,1.4-24.2,3.9-36.2,6
					c-11.2,1.9-22.3,4-33.5,5.9c-5.9,1-5.9,0.8-7.8-4.7c-3.5-10.2-6.8-20.5-10.8-30.5c-1.9-4.9-3.8-9.8-5.5-14.8
					c-1.6-4.5-3.9-9.1-3.8-13.9c0-2.4,1.3-3.1,3.5-3.9c2.8-1.1,5.6-2.1,8.4-3.1c5.6-2.1,11.3-4.2,16.9-6.3c7-2.7,14.8-4,22.3-5.6
					c7.9-1.7,15.4-4.1,23.3-5.8c16.6-3.5,33.6-5.3,50.7-5.1c1.2,0,2.4,0.1,3.6,0.1c3.7,0.2,7.5,0.5,11.2,1c1.9,0.2,3.7,0.5,5.6,0.9
					c1.7,0.3,3.8,1.1,5.6,1.1c5.6,1.3,11.2,2.4,17,2.7c5.6,0.3,5.8,0.9,17.4,2c1.3,0.1,21,6.1,28.1,8.5c0.1,0.1,0.2,0.1,0.3,0.2
					c22.4,10.6,44.9,20.5,66,33.6c9.1,5.6,17.9,11.7,27.1,17.1C549.3,623.5,542.3,631.8,539.3,636.8z M630.5,602.2
					c0.4,3.9,0.8,7.7,1.2,11.6c0.1,0.7,0.1,1.5-0.3,2.1c-0.4,0.5-1.2,0.7-1.9,0.7c-4.3,0.3-8.7-0.5-12.9,0.6
					c-6.2,1.7-10.5,7.7-12.1,14c-1.7,6.2-1.2,12.8-1.1,19.3c0,1-0.5,2.3-1.4,2c-0.3-0.1-5.9-2.5-8.3-4.2c-3.5-2.3-6.8-5.1-10.3-7.5
					c-5.3-3.5-10.5-7-15.9-10.4c-2.7-1.7-12.2-5.3-12.5-8.8c-0.2-2.8,2.4-6.1,4.2-8.8c3.2-4.8,5.7-10,7.8-15.4
					c1.9-4.7,3.5-9.5,5.3-14.3c2.1-5.7,3.6-11.6,5.9-17.2c2.1-5,4.2-10,6.1-15.1c1-2.8,2-5.6,3.2-8.3c1.1-2.3,2.7-5.8,5.2-6.7
					c0.9-0.3,1.8-0.4,2.7-0.5c3.3,0,6.8-0.8,10.1-1.1c3.3-0.4,6.5-0.8,9.8-1.3c2.5-0.4,3.5,0.5,3.8,2.7c0.3,1.5,0.5,2.9,0.8,4.4
					C623.6,560.6,628.3,581.2,630.5,602.2z M794.7,508c-0.1,0.6-0.2,1.2-0.3,1.8c-0.6,2.2-1.8,4.1-3.9,5.2c-1.4,0.7-2.5,1.9-4,2.5
					c-1.5,0.7-3.1,0.9-4.7,1.3c-4.7,1.3-9,3.2-13,6c0,0,0,0-0.1,0c-4.6,4.9-9,9.9-13.4,14.9c-4.9,5.5-10.1,10.8-14.9,16.3
					c-0.2,0.3-0.5,0.6-0.7,0.9c-3.7,4.4-8.1,8.2-12,12.3c-2.7,2.9-2.9,2.8-5.6,0.1c-4.8-4.8-10.4-8.6-16.6-11
					c-10.1-3.9-20.1-7.8-30-12c-12.1-5.1-24.7-9.1-35.8-16.7c-3.6-2.5-8-3.9-12.7-3.2c-3.8,0.5-3.8,0.5-4.5-3.4
					c-1.1-6.4-2.2-12.8-3.2-19.2c-3-19.8-6-39.6-9-59.3c-2.9-19.5-6.1-39-9.5-58.5c-1.5-8.6-2.4-17.4-3.9-25.9
					c-1.2-7-3.1-13.8-3.4-20.9c-0.4-8.9-2.1-17.5-3.4-26.2c-1.5-9.7-2.6-19.5-3.7-29.2c-3.7-33.1-6.8-66.3-10.1-99.4
					c-1.5-14.7-2.9-29.4-4.4-44.1c-0.1-1.5-0.2-3.2,0.9-4.2c0.7-0.6,1.7-0.8,2.6-0.9c7.3-0.9,14.7-2.2,21.5-5
					c6.5-2.6,11.5-7.1,18.2-9.4c7.8-2.6,16-5.5,24.2-5.9c5.3-0.3,10.5-1,15.8-1c13.5,0,17.5,13.9,24.8,23.4
					c6.4,8.2,12.1,16.9,19.6,24.2c3.1,3,5.9,6.3,7.6,10.2c5.8,12.7,12.1,25.1,15.9,38.4c0.7,2.4,1.8,4.7,2.9,6.9
					c9.7,19.9,18.4,40.2,27.2,60.5c2.9,6.7,5.2,13.6,8.8,19.9c3.7,6.6,7.5,13.2,11.5,19.7c3.3,5.4,7.2,10.8,7.8,17.4
					c0.2,2.4-0.5,4.8,0.5,7c1,2.4,3.4,4.7,4.8,6.9c2.8,4.5,5.3,9.2,8.4,13.5c8.1,11.5,9.9,20.9,8.6,34.8c-0.6,6.5-0.7,13-1.4,19.4
					c-0.9,8.1-0.9,16.3-1.9,24.4c-1,8.3-0.9,16.6-2,24.9c-0.9,6.9-0.7,13.8-1.3,20.7C796.1,493.5,795.4,500.8,794.7,508z"/>
			</g>
		</g>
		<g>
			<g>
				<path class="st0" d="M470.9,108.2c0,2.1-1.6,3.5-4,3.5h-2.6v4.9h-1.6v-11.9h4.2C469.3,104.7,470.9,106.1,470.9,108.2z
					 M469.2,108.2c0-1.3-1-2.2-2.5-2.2h-2.5v4.4h2.5C468.2,110.4,469.2,109.6,469.2,108.2z"/>
				<path class="st0" d="M478.6,111.7h-2.4v4.9h-1.6v-11.9h4.4c3.1,0,3.9,1.7,3.9,3.5c0,1.3-0.7,2.8-2.7,3.3l3.1,5.2h-1.8
					L478.6,111.7z M476.2,110.3h2.6c1.8,0,2.4-0.9,2.4-2.1c0-1.2-0.6-2.1-2.4-2.1h-2.6V110.3z"/>
				<path class="st0" d="M486.1,110.7c0-3.9,2.1-6.2,5.5-6.2c3.3,0,5.4,2.3,5.4,6.2c0,3.9-2.1,6.2-5.4,6.2
					C488.3,116.9,486.1,114.5,486.1,110.7z M495.3,110.7c0-3.1-1.4-4.9-3.8-4.9s-3.8,1.8-3.8,4.9c0,3,1.4,4.9,3.8,4.9
					S495.3,113.7,495.3,110.7z"/>
				<path class="st0" d="M500.2,110.7c0-3.6,2-6.2,5.5-6.2c3.3,0,4.3,2.3,4.5,3.6l-1.6,0.2c-0.2-1-0.9-2.5-3-2.5
					c-2.4,0-3.8,2-3.8,4.9c0,2.7,1.2,4.9,3.8,4.9c2.9,0,3.4-2.5,3.4-3.6v-0.2h-3.5v-1.3h4.9v6.2h-1.2l-0.2-1.9
					c-0.5,1.3-1.9,2.2-3.7,2.2C502.2,116.9,500.2,114.3,500.2,110.7z"/>
				<path class="st0" d="M518.9,111.7h-2.4v4.9h-1.6v-11.9h4.4c3.1,0,3.9,1.7,3.9,3.5c0,1.3-0.7,2.8-2.7,3.3l3.1,5.2h-1.8
					L518.9,111.7z M516.5,110.3h2.6c1.8,0,2.4-0.9,2.4-2.1c0-1.2-0.6-2.1-2.4-2.1h-2.6V110.3z"/>
				<path class="st0" d="M535.2,115.3v1.3h-7.5v-11.9h7.4v1.3h-5.8v3.8h5.5v1.3h-5.5v4.1H535.2z"/>
				<path class="st0" d="M538.1,113.1l1.6-0.2c0.2,1.5,1.1,2.8,3.2,2.8c1.3,0,2.7-0.5,2.7-2c0-1.4-0.9-1.9-2.3-2.1l-1.7-0.4
					c-1.7-0.4-3-1.2-3-3.3c0-2,1.6-3.3,4.1-3.3c2.4,0,4.2,1.1,4.4,3.4l-1.6,0.3c-0.2-1.6-1.1-2.5-2.9-2.5c-1.5,0-2.5,0.7-2.5,1.9
					c0,1.2,0.6,1.8,1.9,2l1.7,0.4c1.8,0.4,3.3,1.2,3.3,3.4c0,1.8-1.4,3.5-4.3,3.5C539.9,116.9,538.3,115.3,538.1,113.1z"/>
				<path class="st0" d="M550.4,110.7c0-3.9,2.1-6.2,5.5-6.2c3.3,0,5.4,2.3,5.4,6.2c0,3.9-2.1,6.2-5.4,6.2
					C552.5,116.9,550.4,114.5,550.4,110.7z M559.6,110.7c0-3.1-1.4-4.9-3.8-4.9s-3.8,1.8-3.8,4.9c0,3,1.4,4.9,3.8,4.9
					S559.6,113.7,559.6,110.7z"/>
			</g>
			<g>
				<path class="st0" d="M821,28.6l1.6-0.2c0.2,1.5,1.1,2.8,3.2,2.8c1.3,0,2.7-0.5,2.7-2c0-1.4-0.9-1.9-2.3-2.1l-1.7-0.4
					c-1.7-0.4-3-1.2-3-3.3c0-2,1.6-3.3,4.1-3.3c2.4,0,4.2,1.1,4.4,3.4l-1.6,0.3c-0.2-1.6-1.1-2.5-2.9-2.5c-1.5,0-2.5,0.7-2.5,1.9
					c0,1.2,0.6,1.8,1.9,2l1.7,0.4c1.8,0.4,3.3,1.2,3.3,3.4c0,1.8-1.4,3.5-4.3,3.5C822.7,32.4,821.2,30.8,821,28.6z"/>
				<path class="st0" d="M840.3,28.7h-4.9l-1.2,3.4h-1.6l4.5-11.9h1.6l4.5,11.9h-1.6L840.3,28.7z M839.9,27.4l-1.7-4.6
					c-0.1-0.3-0.2-0.6-0.3-0.9h0c-0.1,0.4-0.2,0.6-0.3,0.9l-1.7,4.6H839.9z"/>
				<path class="st0" d="M846.9,20.2h1.9l5,8.7c0.3,0.6,0.6,1,0.7,1.5h0c0-0.4,0-0.9,0-1.6v-8.6h1.4v11.9h-1.9l-5-8.7
					c-0.3-0.6-0.6-1-0.7-1.5h0c0,0.4,0,0.9,0,1.6v8.6h-1.4V20.2z"/>
				<path class="st0" d="M875.5,28.9c0,1.5-0.9,3.3-3.9,3.3h-4.5V20.2h4.1c3.1,0,4,1.8,4,3.2c0,1.1-0.6,2.2-2,2.6
					C874.6,26.2,875.5,27.3,875.5,28.9z M868.7,21.6v3.8h2.6c2,0,2.4-1.1,2.4-1.9c0-0.9-0.5-1.9-2.4-1.9H868.7z M873.9,28.7
					c0-1.1-0.7-2-2.3-2h-3v4.1h2.8C873.3,30.8,873.9,29.8,873.9,28.7z"/>
				<path class="st0" d="M887.3,30.8v1.3h-7.5V20.2h7.4v1.3h-5.8v3.8h5.5v1.3h-5.5v4.1H887.3z"/>
				<path class="st0" d="M891.7,20.2h1.9l5,8.7c0.3,0.6,0.6,1,0.7,1.5h0c0-0.4,0-0.9,0-1.6v-8.6h1.4v11.9h-1.9l-5-8.7
					c-0.3-0.6-0.6-1-0.7-1.5h0c0,0.4,0.1,0.9,0.1,1.6v8.6h-1.4V20.2z"/>
				<path class="st0" d="M905.9,32.1V20.2h1.6v11.9H905.9z"/>
				<path class="st0" d="M920.1,21.6h-3.7v10.6h-1.6V21.6H911v-1.3h9.1V21.6z"/>
				<path class="st0" d="M921.8,26.2c0-3.9,2.1-6.2,5.5-6.2c3.3,0,5.4,2.3,5.4,6.2c0,3.9-2.1,6.2-5.4,6.2
					C924,32.4,921.8,30,921.8,26.2z M931,26.2c0-3.1-1.4-4.9-3.8-4.9s-3.8,1.8-3.8,4.9c0,3,1.4,4.9,3.8,4.9S931,29.2,931,26.2z"/>
			</g>
			<g>
				<path class="st0" d="M344.9,134c0-3.7,1.9-6.2,5.4-6.2c2.9,0,4.4,1.7,4.7,4.2l-1.6,0.2c-0.2-1.8-1.3-3-3.2-3
					c-2.3,0-3.7,1.9-3.7,4.8c0,2.8,1.3,4.9,3.7,4.9c1.7,0,2.9-1.1,3.2-2.9l1.5,0.3c-0.5,2.2-1.9,4-4.8,4
					C346.6,140.3,344.9,137.5,344.9,134z"/>
				<path class="st0" d="M368.3,140h-1.6v-5.4h-6v5.4h-1.6v-11.9h1.6v5.1h6v-5.1h1.6V140z"/>
				<path class="st0" d="M380.9,138.7v1.3h-7.5v-11.9h7.4v1.3H375v3.8h5.5v1.3H375v4.1H380.9z"/>
				<path class="st0" d="M385.3,128.1h1.6v10.6h5.5v1.3h-7.1V128.1z"/>
				<path class="st0" d="M403.6,138.7v1.3h-7.5v-11.9h7.4v1.3h-5.8v3.8h5.5v1.3h-5.5v4.1H403.6z"/>
				<path class="st0" d="M408,128.1h2.3l3.2,9.2c0.2,0.6,0.2,0.7,0.3,1.1h0c0.1-0.4,0.1-0.5,0.3-1.1l3.2-9.2h2.3V140H418v-9.2
					c0-0.5,0-0.9,0.1-1.3H418c0,0.2-0.2,1-0.4,1.4l-3.2,9.1H413l-3.2-9.1c-0.2-0.4-0.3-1.1-0.4-1.4h-0.1c0,0.4,0.1,0.8,0.1,1.3v9.2
					H408V128.1z"/>
			</g>
		</g>
		<g>
			<g>
				<polygon class="st0" points="32.7,242.2 36.8,242.2 42.8,257 38.4,257 34.8,247.1 31.2,257 26.7,257 				"/>
			</g>
		</g>
		<g>
			<g>
				<path class="st0" d="M628.4,647.9h2.3l3.2,9.2c0.2,0.6,0.2,0.7,0.3,1.1h0c0.1-0.4,0.1-0.5,0.3-1.1l3.2-9.2h2.3v11.9h-1.5v-9.2
					c0-0.5,0-0.9,0.1-1.3h-0.1c0,0.2-0.2,1-0.4,1.4l-3.2,9.1h-1.5l-3.2-9.1c-0.2-0.4-0.3-1.1-0.4-1.4h-0.1c0,0.4,0.1,0.8,0.1,1.3
					v9.2h-1.5V647.9z"/>
				<path class="st0" d="M652.4,658.5v1.3h-7.5v-11.9h7.4v1.3h-5.8v3.8h5.5v1.3h-5.5v4.1H652.4z M649.3,647.2H648l1.5-1.8h1.6
					L649.3,647.2z"/>
				<path class="st0" d="M660.8,654.9h-2.4v4.9h-1.6v-11.9h4.4c3.1,0,3.9,1.7,3.9,3.5c0,1.3-0.7,2.8-2.7,3.3l3.1,5.2h-1.8
					L660.8,654.9z M658.4,653.5h2.6c1.8,0,2.4-0.9,2.4-2.1c0-1.2-0.6-2.1-2.4-2.1h-2.6V653.5z"/>
				<path class="st0" d="M669.6,659.8v-11.9h1.6v11.9H669.6z"/>
				<path class="st0" d="M676.3,647.9h3.9c3.4,0,5.7,2.4,5.7,5.9c0,3.5-2.2,6-5.7,6h-3.9V647.9z M680.1,658.5c2.6,0,4-2.1,4-4.6
					c0-2.7-1.4-4.6-4-4.6h-2.3v9.2H680.1z"/>
				<path class="st0" d="M696,656.4h-4.9l-1.2,3.4h-1.6l4.5-11.9h1.6l4.5,11.9h-1.6L696,656.4z M695.5,655l-1.7-4.6
					c-0.1-0.3-0.2-0.6-0.3-0.9h0c-0.1,0.4-0.2,0.6-0.3,0.9l-1.7,4.6H695.5z"/>
			</g>
			<g>
				<path class="st0" d="M910.2,597.4h-3.7V608h-1.6v-10.6h-3.7v-1.3h9.1V597.4z"/>
				<path class="st0" d="M913.7,608v-11.9h1.6V608H913.7z"/>
				<path class="st0" d="M923.1,601.7l-3.8-5.6h1.9l2.5,3.9c0.2,0.3,0.3,0.5,0.4,0.7h0c0.1-0.3,0.2-0.4,0.4-0.7l2.5-3.9h1.8
					l-3.7,5.8l4.2,6.2h-1.9l-2.7-4.2c-0.3-0.5-0.4-0.6-0.6-0.9h0c-0.1,0.3-0.3,0.6-0.6,0.9l-2.7,4.2h-1.8L923.1,601.7z"/>
				<path class="st0" d="M936.1,602l-1.8,1.9v4.1h-1.6v-11.9h1.6v5.9l5.2-5.9h2l-4.3,4.7l-0.1,0.1l4.7,7.1h-1.9L936.1,602z"/>
				<path class="st0" d="M943.7,602c0-3.9,2.1-6.2,5.5-6.2c3.3,0,5.4,2.3,5.4,6.2c0,3.9-2.1,6.2-5.4,6.2
					C945.9,608.3,943.7,605.9,943.7,602z M952.9,602c0-3.1-1.4-4.9-3.8-4.9s-3.8,1.8-3.8,4.9c0,3,1.4,4.9,3.8,4.9
					S952.9,605.1,952.9,602z"/>
				<path class="st0" d="M962.1,602l-1.8,1.9v4.1h-1.6v-11.9h1.6v5.9l5.2-5.9h2l-4.3,4.7l-0.1,0.1l4.7,7.1H966L962.1,602z"/>
				<path class="st0" d="M969.7,602c0-3.9,2.1-6.2,5.5-6.2c3.3,0,5.4,2.3,5.4,6.2c0,3.9-2.1,6.2-5.4,6.2
					C971.8,608.3,969.7,605.9,969.7,602z M978.9,602c0-3.1-1.4-4.9-3.8-4.9s-3.8,1.8-3.8,4.9c0,3,1.4,4.9,3.8,4.9
					S978.9,605.1,978.9,602z"/>
				<path class="st0" d="M993.1,604.7c0,1.5-0.9,3.3-3.9,3.3h-4.5v-11.9h4.1c3.1,0,4,1.8,4,3.2c0,1.1-0.6,2.2-2,2.6
					C992.2,602.1,993.1,603.1,993.1,604.7z M986.2,597.4v3.8h2.6c2,0,2.4-1.1,2.4-1.9c0-0.9-0.5-1.9-2.4-1.9H986.2z M991.5,604.6
					c0-1.1-0.7-2-2.3-2h-3v4.1h2.8C990.9,606.7,991.5,605.7,991.5,604.6z"/>
			</g>
			<g>
				<path class="st0" d="M952.5,414.6c0,1.5-0.9,3.3-3.9,3.3h-4.5V406h4.1c3.1,0,4,1.8,4,3.2c0,1.1-0.6,2.2-2,2.6
					C951.6,412,952.5,413,952.5,414.6z M945.7,407.3v3.8h2.6c2,0,2.4-1.1,2.4-1.9c0-0.9-0.5-1.9-2.4-1.9H945.7z M950.9,414.5
					c0-1.1-0.7-2-2.3-2h-3v4.1h2.8C950.4,416.5,950.9,415.5,950.9,414.5z"/>
				<path class="st0" d="M963,414.4h-4.9l-1.2,3.4h-1.6l4.5-11.9h1.6l4.5,11.9h-1.6L963,414.4z M962.5,413.1l-1.7-4.6
					c-0.1-0.3-0.2-0.6-0.3-0.9h0c-0.1,0.4-0.2,0.6-0.3,0.9l-1.7,4.6H962.5z"/>
				<path class="st0" d="M968.3,411.9c0-3.7,1.9-6.2,5.4-6.2c2.9,0,4.4,1.7,4.7,4.2l-1.6,0.2c-0.2-1.8-1.3-3-3.2-3
					c-2.3,0-3.7,1.9-3.7,4.8c0,2.8,1.3,4.9,3.7,4.9c1.7,0,2.9-1.1,3.2-2.9l1.5,0.3c-0.5,2.2-1.9,4-4.8,4
					C970,418.2,968.3,415.3,968.3,411.9z"/>
				<path class="st0" d="M988.7,414.4h-4.9l-1.2,3.4H981l4.5-11.9h1.6l4.5,11.9h-1.6L988.7,414.4z M988.2,413.1l-1.7-4.6
					c-0.1-0.3-0.2-0.6-0.3-0.9h0c-0.1,0.4-0.2,0.6-0.3,0.9l-1.7,4.6H988.2z M986.9,405.2h-1.3l1.5-1.8h1.6L986.9,405.2z"/>
			</g>
			<g>
				<path class="st0" d="M705.5,469.2c0-3.7,1.9-6.2,5.4-6.2c2.9,0,4.4,1.7,4.7,4.2l-1.6,0.2c-0.2-1.8-1.3-3-3.2-3
					c-2.3,0-3.7,1.9-3.7,4.8c0,2.8,1.3,4.9,3.7,4.9c1.7,0,2.9-1.1,3.2-2.9l1.5,0.3c-0.5,2.2-1.9,4-4.8,4
					C707.2,475.5,705.5,472.7,705.5,469.2z"/>
				<path class="st0" d="M718.7,469.2c0-3.9,2.1-6.2,5.5-6.2c3.3,0,5.4,2.3,5.4,6.2c0,3.9-2.1,6.2-5.4,6.2
					C720.9,475.5,718.7,473,718.7,469.2z M727.9,469.2c0-3.1-1.4-4.9-3.8-4.9s-3.8,1.8-3.8,4.9c0,3,1.4,4.9,3.8,4.9
					S727.9,472.3,727.9,469.2z"/>
				<path class="st0" d="M733.7,463.3h1.9l5,8.7c0.3,0.6,0.6,1,0.7,1.5h0c0-0.4-0.1-0.9-0.1-1.6v-8.6h1.4v11.9h-1.9l-5-8.7
					c-0.3-0.6-0.6-1-0.7-1.5h0c0,0.4,0,0.9,0,1.6v8.6h-1.4V463.3z"/>
				<path class="st0" d="M751.2,469.2l-1.8,1.9v4.1h-1.6v-11.9h1.6v5.9l5.2-5.9h2l-4.3,4.7l-0.1,0.1l4.7,7.1h-1.9L751.2,469.2z"/>
				<path class="st0" d="M767.4,471.8h-4.9l-1.2,3.4h-1.6l4.5-11.9h1.6l4.5,11.9h-1.6L767.4,471.8z M766.9,470.4l-1.7-4.6
					c-0.1-0.3-0.2-0.6-0.3-0.9h0c-0.1,0.4-0.2,0.6-0.3,0.9l-1.7,4.6H766.9z"/>
				<path class="st0" d="M773.9,463.3h1.6v10.6h5.5v1.3h-7.1V463.3z"/>
			</g>
		</g>
		<g>
			<g>
				<path class="st1" d="M562.1,303c0-5.8-4.7-10.5-10.5-10.5c-5.8,0-10.5,4.7-10.5,10.5s4.7,10.5,10.5,10.5
					C557.3,313.5,562.1,308.8,562.1,303"/>
			</g>
			<g>
				<path class="st0" d="M431.5,142c0-1.8-1.4-3.2-3.2-3.2c-1.8,0-3.2,1.4-3.2,3.2c0,1.8,1.4,3.2,3.2,3.2
					C430,145.3,431.5,143.8,431.5,142"/>
			</g>
			<g>
				<path class="st0" d="M790.7,482.4c0-1.8-1.4-3.2-3.2-3.2c-1.8,0-3.2,1.4-3.2,3.2c0,1.8,1.4,3.2,3.2,3.2
					C789.2,485.6,790.7,484.2,790.7,482.4"/>
			</g>
		</g>
		<g>
			<g>
				<path class="st0" d="M479.1,362.3h-3.7v10.6h-1.6v-10.6H470V361h9.1V362.3z"/>
				<path class="st0" d="M487.8,369.5h-4.9l-1.2,3.4H480l4.5-11.9h1.6l4.5,11.9H489L487.8,369.5z M487.3,368.1l-1.7-4.6
					c-0.1-0.3-0.2-0.6-0.3-0.9h0c-0.1,0.4-0.2,0.6-0.3,0.9l-1.7,4.6H487.3z"/>
				<path class="st0" d="M494.3,361h2.3l3.2,9.2c0.2,0.6,0.2,0.7,0.3,1.1h0c0.1-0.4,0.1-0.5,0.3-1.1l3.2-9.2h2.3v11.9h-1.5v-9.2
					c0-0.5,0-0.9,0.1-1.3h-0.1c0,0.2-0.2,1-0.4,1.4l-3.2,9.1h-1.5l-3.2-9.1c-0.2-0.4-0.3-1.1-0.4-1.4h-0.1c0,0.4,0.1,0.8,0.1,1.3
					v9.2h-1.5V361z"/>
				<path class="st0" d="M517.2,369.5h-4.9l-1.2,3.4h-1.6L514,361h1.6l4.5,11.9h-1.6L517.2,369.5z M516.7,368.1l-1.7-4.6
					c-0.1-0.3-0.2-0.6-0.3-0.9h0c-0.1,0.4-0.2,0.6-0.3,0.9l-1.7,4.6H516.7z"/>
				<path class="st0" d="M523.8,361h1.9l5,8.7c0.3,0.6,0.6,1,0.7,1.5h0c0-0.4,0-0.9,0-1.6V361h1.4v11.9H531l-5-8.7
					c-0.3-0.6-0.6-1-0.7-1.5h0c0,0.4,0,0.9,0,1.6v8.6h-1.4V361z"/>
				<path class="st0" d="M537,366.9c0-3.7,1.9-6.2,5.4-6.2c2.9,0,4.4,1.7,4.7,4.2l-1.6,0.2c-0.2-1.8-1.3-3-3.2-3
					c-2.3,0-3.7,1.9-3.7,4.8c0,2.8,1.3,4.9,3.7,4.9c1.7,0,2.9-1.1,3.2-2.9l1.5,0.3c-0.5,2.2-1.9,4-4.8,4
					C538.7,373.2,537,370.4,537,366.9z"/>
				<path class="st0" d="M560.4,372.9h-1.6v-5.4h-6v5.4h-1.6V361h1.6v5.1h6V361h1.6V372.9z"/>
				<path class="st0" d="M573,371.6v1.3h-7.5V361h7.4v1.3h-5.8v3.8h5.5v1.3h-5.5v4.1H573z M569.9,360.3h-1.3l1.5-1.8h1.6
					L569.9,360.3z"/>
			</g>
		</g>
		<g>
			<g>
				<path class="st0" d="M584.5,380.1c0-1.8-1.4-3.2-3.2-3.2s-3.2,1.4-3.2,3.2c0,1.8,1.4,3.2,3.2,3.2S584.5,381.9,584.5,380.1"/>
			</g>
		</g>
		<g>
			<g>
				<path class="st0" d="M476.8,423.9l-1.8,1.9v4.1h-1.6V418h1.6v5.9l5.2-5.9h2l-4.3,4.7l-0.1,0.1l4.7,7.1h-1.9L476.8,423.9z"/>
				<path class="st0" d="M484.4,424c0-3.9,2.1-6.2,5.5-6.2c3.3,0,5.4,2.3,5.4,6.2c0,3.9-2.1,6.2-5.4,6.2
					C486.6,430.2,484.4,427.8,484.4,424z M493.6,424c0-3.1-1.4-4.9-3.8-4.9s-3.8,1.8-3.8,4.9c0,3,1.4,4.9,3.8,4.9
					S493.6,427,493.6,424z"/>
				<path class="st0" d="M499.4,418h2.3l3.2,9.2c0.2,0.6,0.2,0.7,0.3,1.1h0c0.1-0.4,0.1-0.5,0.3-1.1l3.2-9.2h2.3v11.9h-1.5v-9.2
					c0-0.5,0-0.9,0.1-1.3h-0.1c0,0.2-0.2,1-0.4,1.4l-3.2,9.1h-1.5l-3.2-9.1c-0.2-0.4-0.3-1.1-0.4-1.4h-0.1c0.1,0.4,0.1,0.8,0.1,1.3
					v9.2h-1.5V418z"/>
				<path class="st0" d="M515,424c0-3.7,1.9-6.2,5.4-6.2c2.9,0,4.4,1.7,4.7,4.2l-1.6,0.2c-0.2-1.8-1.3-3-3.2-3
					c-2.3,0-3.7,1.9-3.7,4.8c0,2.8,1.3,4.9,3.7,4.9c1.7,0,2.9-1.1,3.2-2.9l1.5,0.3c-0.5,2.2-1.9,4-4.8,4
					C516.7,430.2,515,427.4,515,424z"/>
				<path class="st0" d="M538.4,429.9h-1.6v-5.4h-6v5.4h-1.6V418h1.6v5.2h6V418h1.6V429.9z"/>
				<path class="st0" d="M550.9,428.6v1.3h-7.5V418h7.4v1.3H545v3.8h5.5v1.3H545v4.1H550.9z"/>
				<path class="st0" d="M555.4,418h1.9l5,8.7c0.3,0.6,0.6,1,0.7,1.5h0c0-0.4,0-0.9,0-1.6V418h1.4v11.9h-1.9l-5-8.7
					c-0.3-0.6-0.6-1-0.7-1.5h0c0,0.4,0,0.9,0,1.6v8.6h-1.4V418z"/>
			</g>
		</g>
		<g>
			<g>
				<path class="st0" d="M576.7,437.2c0-1.8-1.5-3.2-3.2-3.2c-1.8,0-3.2,1.4-3.2,3.2c0,1.8,1.4,3.2,3.2,3.2
					C575.2,440.4,576.7,439,576.7,437.2"/>
			</g>
		</g>
		<g>
			<g>
				<path class="st0" d="M447.3,618.6c0-3.7,1.9-6.2,5.4-6.2c2.9,0,4.4,1.7,4.7,4.2l-1.6,0.2c-0.2-1.8-1.3-3-3.2-3
					c-2.3,0-3.7,1.9-3.7,4.8c0,2.8,1.3,4.9,3.7,4.9c1.7,0,2.9-1.1,3.2-2.9l1.5,0.3c-0.5,2.2-1.9,4-4.8,4
					C449,624.8,447.3,622,447.3,618.6z"/>
				<path class="st0" d="M467.7,621.1h-4.9l-1.2,3.4H460l4.5-11.9h1.6l4.5,11.9h-1.6L467.7,621.1z M467.2,619.8l-1.7-4.6
					c-0.1-0.3-0.2-0.6-0.3-0.9h0c-0.1,0.4-0.2,0.6-0.3,0.9l-1.7,4.6H467.2z"/>
				<path class="st0" d="M475.2,612.6v7.6c0,1.9,1.1,3.1,3,3.1c1.9,0,3-1.2,3-3.1v-7.6h1.6v7.8c0,2.7-1.6,4.4-4.6,4.4
					s-4.6-1.8-4.6-4.4v-7.8H475.2z"/>
				<path class="st0" d="M486.6,618.6c0-3.7,1.9-6.2,5.4-6.2c2.9,0,4.4,1.7,4.7,4.2l-1.6,0.2c-0.2-1.8-1.3-3-3.2-3
					c-2.3,0-3.7,1.9-3.7,4.8c0,2.8,1.3,4.9,3.7,4.9c1.7,0,2.9-1.1,3.2-2.9l1.5,0.3c-0.5,2.2-1.9,4-4.8,4
					C488.3,624.8,486.6,622,486.6,618.6z"/>
				<path class="st0" d="M508.4,623.2v1.3h-7.5v-11.9h7.4v1.3h-5.8v3.8h5.5v1.3h-5.5v4.1H508.4z"/>
				<path class="st0" d="M512.8,612.6h1.6v10.6h5.5v1.3h-7.1V612.6z"/>
			</g>
		</g>
		<g>
			<g>
				<path class="st0" d="M532.6,631c0-1.8-1.4-3.2-3.2-3.2c-1.8,0-3.2,1.4-3.2,3.2c0,1.8,1.5,3.2,3.2,3.2
					C531.1,634.3,532.6,632.8,532.6,631"/>
			</g>
		</g>
		<g>
			<g>
				<path class="st0" d="M400.6,532.3v7.6c0,1.9,1.1,3.1,3,3.1c1.9,0,3-1.2,3-3.1v-7.6h1.6v7.7c0,2.7-1.6,4.4-4.6,4.4
					s-4.6-1.8-4.6-4.4v-7.7H400.6z"/>
				<path class="st0" d="M412,538.2c0-3.7,1.9-6.2,5.4-6.2c2.9,0,4.4,1.7,4.7,4.2l-1.6,0.2c-0.2-1.8-1.3-3-3.2-3
					c-2.3,0-3.7,1.9-3.7,4.8c0,2.8,1.3,4.9,3.7,4.9c1.7,0,2.9-1.1,3.2-2.9l1.5,0.3c-0.5,2.2-1.9,4-4.8,4
					C413.7,544.5,412,541.7,412,538.2z"/>
				<path class="st0" d="M427.6,532.3v7.6c0,1.9,1.1,3.1,3,3.1c1.9,0,3-1.2,3-3.1v-7.6h1.6v7.7c0,2.7-1.6,4.4-4.6,4.4
					s-4.6-1.8-4.6-4.4v-7.7H427.6z"/>
			</g>
		</g>
		<g>
			<g>
				<path class="st0" d="M443.4,550.8c0-1.8-1.4-3.2-3.2-3.2c-1.8,0-3.2,1.4-3.2,3.2c0,1.8,1.5,3.2,3.2,3.2
					C441.9,554,443.4,552.6,443.4,550.8"/>
			</g>
		</g>
		<g>
			<g>
				<path class="st0" d="M101.7,596.4h-1.6V591h-6v5.4h-1.6v-11.9h1.6v5.2h6v-5.2h1.6V596.4z"/>
				<path class="st0" d="M108.1,584.5v7.6c0,1.9,1.1,3.1,3,3.1c1.9,0,3-1.2,3-3.1v-7.6h1.6v7.8c0,2.7-1.6,4.4-4.6,4.4
					s-4.6-1.8-4.6-4.4v-7.8H108.1z"/>
				<path class="st0" d="M120.4,584.5h1.9l5,8.7c0.3,0.6,0.6,1,0.7,1.5h0c0-0.4-0.1-0.9-0.1-1.6v-8.6h1.4v11.9h-1.9l-5-8.7
					c-0.3-0.6-0.6-1-0.7-1.5h0c0,0.4,0.1,0.9,0.1,1.6v8.6h-1.4V584.5z"/>
				<path class="st0" d="M135.9,584.5v7.6c0,1.9,1.1,3.1,3,3.1c1.9,0,3-1.2,3-3.1v-7.6h1.6v7.8c0,2.7-1.6,4.4-4.6,4.4
					s-4.6-1.8-4.6-4.4v-7.8H135.9z"/>
				<path class="st0" d="M147.4,590.5c0-3.7,1.9-6.2,5.4-6.2c2.9,0,4.4,1.7,4.7,4.2l-1.6,0.2c-0.2-1.8-1.3-3-3.2-3
					c-2.3,0-3.7,1.9-3.7,4.8c0,2.8,1.3,4.9,3.7,4.9c1.7,0,2.9-1.1,3.2-2.9l1.5,0.3c-0.5,2.2-1.9,4-4.8,4
					C149,596.7,147.4,593.9,147.4,590.5z"/>
				<path class="st0" d="M161.6,584.5h2.3l3.2,9.2c0.2,0.6,0.2,0.7,0.3,1.1h0c0.1-0.4,0.1-0.5,0.3-1.1l3.2-9.2h2.3v11.9h-1.5v-9.2
					c0-0.5,0-0.9,0.1-1.3h-0.1c0,0.2-0.2,1-0.4,1.4l-3.2,9.1h-1.5l-3.2-9.1c-0.2-0.4-0.3-1.1-0.4-1.4H163c0.1,0.4,0.1,0.8,0.1,1.3
					v9.2h-1.5V584.5z"/>
				<path class="st0" d="M184.5,593h-4.9l-1.2,3.4h-1.6l4.5-11.9h1.6l4.5,11.9h-1.6L184.5,593z M184,591.7l-1.7-4.6
					c-0.1-0.3-0.2-0.6-0.3-0.9h0c-0.1,0.4-0.2,0.6-0.3,0.9l-1.7,4.6H184z M182.7,583.8h-1.3l1.5-1.8h1.6L182.7,583.8z"/>
			</g>
		</g>
		<g>
			<g>
				<path class="st0" d="M206.5,592.6c0-1.8-1.4-3.2-3.2-3.2c-1.8,0-3.2,1.4-3.2,3.2c0,1.8,1.4,3.2,3.2,3.2
					C205.1,595.8,206.5,594.4,206.5,592.6"/>
			</g>
			<g>
				<path class="st0" d="M622.9,642.6c0-1.8-1.5-3.2-3.2-3.2c-1.8,0-3.2,1.4-3.2,3.2c0,1.8,1.5,3.2,3.2,3.2
					C621.5,645.8,622.9,644.4,622.9,642.6"/>
			</g>
			<g>
				<path class="st0" d="M1008.6,612.5c0-1.8-1.4-3.2-3.2-3.2c-1.8,0-3.2,1.4-3.2,3.2c0,1.8,1.5,3.2,3.2,3.2
					C1007.1,615.7,1008.6,614.2,1008.6,612.5"/>
			</g>
			<g>
				<path class="st0" d="M1000.5,427.4c0-1.8-1.4-3.2-3.2-3.2c-1.8,0-3.2,1.4-3.2,3.2c0,1.8,1.4,3.2,3.2,3.2
					C999.1,430.7,1000.5,429.2,1000.5,427.4"/>
			</g>
			<g>
				<path class="st0" d="M572.6,121.1c0-1.8-1.4-3.2-3.2-3.2c-1.8,0-3.2,1.4-3.2,3.2c0,1.8,1.4,3.2,3.2,3.2
					C571.1,124.3,572.6,122.9,572.6,121.1"/>
			</g>
		</g>
		<g>
			<g>
				<path class="st0" d="M610.9,80.7c0-3.7,1.9-6.2,5.4-6.2c2.9,0,4.4,1.7,4.7,4.2l-1.6,0.2c-0.2-1.8-1.3-3-3.2-3
					c-2.3,0-3.7,1.9-3.7,4.8c0,2.8,1.3,4.9,3.7,4.9c1.7,0,2.9-1.1,3.2-2.9l1.5,0.3c-0.5,2.2-1.9,4-4.8,4
					C612.6,87,610.9,84.2,610.9,80.7z"/>
				<path class="st0" d="M634.4,86.7h-1.6v-5.4h-6v5.4h-1.6V74.8h1.6v5.1h6v-5.1h1.6V86.7z"/>
				<path class="st0" d="M639.4,86.7V74.8h1.6v11.9H639.4z"/>
				<path class="st0" d="M645.1,80.7c0-3.7,1.9-6.2,5.4-6.2c2.9,0,4.4,1.7,4.7,4.2l-1.6,0.2c-0.2-1.8-1.3-3-3.2-3
					c-2.3,0-3.7,1.9-3.7,4.8c0,2.8,1.3,4.9,3.7,4.9c1.7,0,2.9-1.1,3.2-2.9l1.5,0.3c-0.5,2.2-1.9,4-4.8,4
					C646.8,87,645.1,84.2,645.1,80.7z"/>
				<path class="st0" d="M661.6,80.4l-3.8-5.6h1.9l2.5,3.9c0.2,0.3,0.3,0.5,0.4,0.7h0c0.1-0.3,0.2-0.4,0.4-0.7l2.5-3.9h1.8l-3.7,5.8
					l4.2,6.2h-1.9l-2.7-4.2c-0.3-0.5-0.4-0.6-0.6-0.9h0c-0.1,0.3-0.3,0.6-0.6,0.9l-2.7,4.2h-1.8L661.6,80.4z"/>
				<path class="st0" d="M672.4,74.8v7.6c0,1.9,1.1,3.1,3,3.1c1.9,0,3-1.2,3-3.1v-7.6h1.6v7.7c0,2.7-1.6,4.4-4.6,4.4
					s-4.6-1.8-4.6-4.4v-7.7H672.4z"/>
				<path class="st0" d="M684.8,74.8h1.6v10.6h5.5v1.3h-7.1V74.8z"/>
				<path class="st0" d="M696.4,74.8v7.6c0,1.9,1.1,3.1,3,3.1c1.9,0,3-1.2,3-3.1v-7.6h1.6v7.7c0,2.7-1.6,4.4-4.6,4.4
					s-4.6-1.8-4.6-4.4v-7.7H696.4z"/>
				<path class="st0" d="M717.2,83.4c0,1.5-0.9,3.3-3.9,3.3h-4.5V74.8h4.1c3.1,0,4,1.8,4,3.2c0,1.1-0.6,2.2-2,2.6
					C716.3,80.8,717.2,81.8,717.2,83.4z M710.3,76.1V80h2.6c2,0,2.4-1.1,2.4-1.9c0-0.9-0.5-1.9-2.4-1.9H710.3z M715.6,83.3
					c0-1.1-0.7-2-2.3-2h-3v4.1h2.8C715,85.4,715.6,84.4,715.6,83.3z"/>
			</g>
		</g>
		<g>
			<g>
				<path class="st0" d="M661.5,98.8c0-1.8-1.4-3.2-3.2-3.2c-1.8,0-3.2,1.4-3.2,3.2c0,1.8,1.5,3.2,3.2,3.2
					C660.1,102.1,661.5,100.6,661.5,98.8"/>
			</g>
		</g>
		<g>
			<g>
				<path class="st0" d="M820.2,338.5c0-3.7,1.9-6.2,5.4-6.2c2.9,0,4.4,1.7,4.7,4.2l-1.6,0.2c-0.2-1.8-1.3-3-3.2-3
					c-2.3,0-3.7,1.9-3.7,4.8c0,2.8,1.3,4.9,3.7,4.9c1.7,0,2.9-1.1,3.2-2.9l1.5,0.3c-0.5,2.2-1.9,4-4.8,4
					C821.8,344.8,820.2,342,820.2,338.5z"/>
				<path class="st0" d="M843.6,344.5H842v-5.4h-6v5.4h-1.6v-11.9h1.6v5.1h6v-5.1h1.6V344.5z"/>
				<path class="st0" d="M848.6,344.5v-11.9h1.6v11.9H848.6z"/>
				<path class="st0" d="M854.3,338.5c0-3.7,1.9-6.2,5.4-6.2c2.9,0,4.4,1.7,4.7,4.2l-1.6,0.2c-0.2-1.8-1.3-3-3.2-3
					c-2.3,0-3.7,1.9-3.7,4.8c0,2.8,1.3,4.9,3.7,4.9c1.7,0,2.9-1.1,3.2-2.9l1.5,0.3c-0.5,2.2-1.9,4-4.8,4
					C856,344.8,854.3,342,854.3,338.5z"/>
				<path class="st0" d="M870.8,338.2l-3.8-5.6h1.9l2.5,3.9c0.2,0.3,0.3,0.5,0.4,0.7h0c0.1-0.3,0.2-0.4,0.4-0.7l2.5-3.9h1.8
					l-3.7,5.8l4.2,6.2H875l-2.7-4.2c-0.3-0.5-0.4-0.6-0.6-0.9h0c-0.1,0.3-0.3,0.6-0.6,0.9l-2.7,4.2h-1.8L870.8,338.2z"/>
				<path class="st0" d="M881.6,332.6v7.6c0,1.9,1.1,3.1,3,3.1c1.9,0,3-1.2,3-3.1v-7.6h1.6v7.7c0,2.7-1.6,4.4-4.6,4.4
					s-4.6-1.8-4.6-4.4v-7.7H881.6z"/>
				<path class="st0" d="M894,332.6h1.6v10.6h5.5v1.3H894V332.6z"/>
				<path class="st0" d="M905.6,332.6v7.6c0,1.9,1.1,3.1,3,3.1c1.9,0,3-1.2,3-3.1v-7.6h1.6v7.7c0,2.7-1.6,4.4-4.6,4.4
					s-4.6-1.8-4.6-4.4v-7.7H905.6z"/>
				<path class="st0" d="M926.4,341.2c0,1.5-0.9,3.3-3.9,3.3H918v-11.9h4.1c3.1,0,4,1.8,4,3.2c0,1.1-0.6,2.2-2,2.6
					C925.5,338.6,926.4,339.7,926.4,341.2z M919.6,334v3.8h2.6c2,0,2.4-1.1,2.4-1.9c0-0.9-0.5-1.9-2.4-1.9H919.6z M924.8,341.1
					c0-1.1-0.7-2-2.3-2h-3v4.1h2.8C924.2,343.2,924.8,342.2,924.8,341.1z"/>
			</g>
			<g>
				<path class="st0" d="M829.4,356.3c0,2.1-1.6,3.5-4,3.5h-2.6v4.9h-1.6v-11.9h4.2C827.8,352.7,829.4,354.1,829.4,356.3z
					 M827.7,356.3c0-1.3-1-2.2-2.5-2.2h-2.5v4.4h2.5C826.7,358.4,827.7,357.6,827.7,356.3z"/>
				<path class="st0" d="M834.4,352.7v7.6c0,1.9,1.1,3.1,3,3.1c1.9,0,3-1.2,3-3.1v-7.6h1.6v7.7c0,2.7-1.6,4.4-4.6,4.4
					s-4.6-1.8-4.6-4.4v-7.7H834.4z"/>
				<path class="st0" d="M854.2,363.3v1.3h-7.5v-11.9h7.4v1.3h-5.8v3.8h5.5v1.3h-5.5v4.1H854.2z"/>
				<path class="st0" d="M867.1,361.4c0,1.5-0.9,3.3-3.9,3.3h-4.5v-11.9h4.1c3.1,0,4,1.8,4,3.2c0,1.1-0.6,2.2-2,2.6
					C866.2,358.7,867.1,359.8,867.1,361.4z M860.3,354.1v3.8h2.6c2,0,2.4-1.1,2.4-1.9c0-0.9-0.5-1.9-2.4-1.9H860.3z M865.5,361.2
					c0-1.1-0.7-2-2.3-2h-3v4.1h2.8C864.9,363.3,865.5,362.3,865.5,361.2z"/>
				<path class="st0" d="M871.4,352.7h1.6v10.6h5.5v1.3h-7.1V352.7z"/>
				<path class="st0" d="M880.8,358.7c0-3.9,2.1-6.2,5.5-6.2c3.3,0,5.4,2.3,5.4,6.2c0,3.9-2.1,6.2-5.4,6.2
					C882.9,364.9,880.8,362.5,880.8,358.7z M890,358.7c0-3.1-1.4-4.9-3.8-4.9s-3.8,1.8-3.8,4.9c0,3,1.4,4.9,3.8,4.9
					S890,361.7,890,358.7z"/>
			</g>
		</g>
		<g>
			<g>
				<path class="st0" d="M817.8,372.1c0-1.8-1.4-3.2-3.2-3.2c-1.8,0-3.2,1.4-3.2,3.2c0,1.8,1.4,3.2,3.2,3.2
					C816.4,375.3,817.8,373.8,817.8,372.1"/>
			</g>
			<g>
				<path class="st0" d="M944.5,39c0-1.8-1.5-3.2-3.2-3.2c-1.8,0-3.2,1.4-3.2,3.2c0,1.8,1.5,3.2,3.2,3.2
					C943.1,42.3,944.5,40.8,944.5,39"/>
			</g>
			<g>
				<path class="st0" d="M27.2,311.1c-3.9-0.2-9.5-0.2-13.3,0V309l1.7-0.4c2.2-0.5,3.1-2.3,3.1-10.1v-21.3c0-3.4-0.9-5.2-3-6
					l-1.6-0.6v-2.2c3.8,0.3,9.7,0.3,13.3,0l21.1,30.2l-0.4-17.9c-0.1-7-0.6-9-3.7-9.6l-1.6-0.4v-2.2c3.7,0.3,9.1,0.3,12.8,0v2.2
					l-1.5,0.4c-2.3,0.6-3,2.3-3,9.6V311c-2.3-0.1-4.5-0.1-6.8,0l-22.9-33.2l0.3,20.8c0.1,7.5,0.8,9.4,3.8,10.1l1.8,0.4V311.1z"/>
			</g>
		</g>
	</g>
</g>
</svg>
