<svg id="Capa_1" data-name="Capa 1" xmlns="http://www.w3.org/2000/svg" viewBox="0 0 150.41 30"><defs><style>.cls-1{fill:#003b33;}</style></defs><path class="cls-1" d="M0,24,.8,24c.08,2.92,2,5.23,6,5.23,3.25,0,5.16-1.63,5.16-4.11,0-2.85-1.71-3.68-4.26-4.13L5,20.48c-2.6-.5-4.17-2-4.17-4.35-.05-2.9,2.1-4.83,5.63-4.83,3.32,0,5.9,1.5,6,5.4l-.8.08C11.49,13.33,9.48,12,6.38,12S1.55,13.6,1.6,16.1c0,1.86,1.15,3.26,3.78,3.71l2.7.5c2.65.47,4.68,1.57,4.68,4.68,0,3.3-2.58,4.93-6,4.93C2.4,29.92.13,27.44,0,24"/><path class="cls-1" d="M26.15,24.16H17.37l-2,5.33h-.82l6.83-17.76h.8L29,29.49h-.85Zm-.28-.72-3.1-8.19c-.55-1.5-.78-2.1-1-2.75h-.05c-.2.65-.42,1.25-1,2.75l-3.1,8.19Z"/><path class="cls-1" d="M32.13,11.73h1L43.19,26.91c.35.53.62,1,.93,1.48h0c0-.55,0-1.1,0-1.75V11.73h.77V29.49h-1L33.81,14.2c-.33-.52-.63-1-.93-1.5h0c0,.58,0,1.13,0,1.75v15h-.77Z"/><rect class="cls-1" x="56.4" y="11.72" width="0.8" height="17.77"/><path class="cls-1" d="M61.05,20.56c0-5.36,2.71-9.26,7.61-9.26s6.36,3.45,6.66,5.43l-.8.08c-.35-2-1.63-4.81-5.93-4.81s-6.71,3.53-6.71,8.63c0,4.68,2.15,8.56,6.73,8.56,5.21,0,6.28-4.63,6.28-6.5V21.23H68.54v-.72h7.13v9H75l-.1-4.18a6.41,6.41,0,0,1-6.46,4.61c-4.8,0-7.41-4.08-7.41-9.36"/><path class="cls-1" d="M80,11.73h1L91.08,26.91c.35.53.63,1,.93,1.48h0c0-.55,0-1.1,0-1.75V11.73h.77V29.49h-1L81.7,14.2c-.33-.52-.63-1-.93-1.5h0c0,.58,0,1.13,0,1.75v15H80Z"/><path class="cls-1" d="M107.5,24.16H98.71l-2,5.33h-.83l6.84-17.76h.8l6.83,17.76h-.85Zm-.28-.72-3.1-8.19c-.55-1.5-.78-2.1-1-2.75h0c-.2.65-.42,1.25-1,2.75L99,23.44Z"/><path class="cls-1" d="M111.6,20.56c0-5.51,2.75-9.26,7.76-9.26,4.13,0,6.43,2.65,6.85,6.31l-.82.05C125,14.25,122.83,12,119.33,12c-4.35,0-6.91,3.43-6.91,8.53,0,4.93,2.26,8.66,6.94,8.66,3.3,0,5.45-2.08,6.08-5.43l.8.08c-.68,3.35-2.65,6.08-6.93,6.08-5.41,0-7.71-4.21-7.71-9.36"/><rect class="cls-1" x="130.17" y="11.72" width="0.8" height="17.77"/><path class="cls-1" d="M134.82,20.61c0-5.68,3.05-9.31,7.76-9.31s7.73,3.63,7.73,9.31-3.05,9.31-7.73,9.31-7.76-3.73-7.76-9.31m14.64,0c0-5.13-2.65-8.61-6.88-8.61s-6.94,3.48-6.94,8.61,2.68,8.61,6.94,8.61,6.88-3.48,6.88-8.61"/><polygon class="cls-1" points="5.94 0.58 3.77 0.58 3.77 6.64 3.27 6.64 3.27 0.58 1.1 0.58 1.1 0.15 5.94 0.15 5.94 0.58"/><polygon class="cls-1" points="10.75 6.21 10.75 6.64 6.82 6.64 6.82 0.15 10.69 0.15 10.69 0.58 7.32 0.58 7.32 3.1 10.53 3.1 10.53 3.54 7.32 3.54 7.32 6.21 10.75 6.21"/><path class="cls-1" d="M14.36,3.77H12.65V6.64h-.5V.16h2.23c1.62,0,2,.9,2,1.79A1.68,1.68,0,0,1,14.9,3.71l1.73,2.93h-.58Zm-1.71-.43h1.69c1.13,0,1.56-.61,1.56-1.39S15.5.58,14.34.58H12.65Z"/><path class="cls-1" d="M20.15,3.77h-1.7V6.64h-.51V.16h2.23c1.62,0,2,.9,2,1.79a1.68,1.68,0,0,1-1.53,1.76l1.73,2.93h-.58Zm-1.7-.43h1.68c1.13,0,1.56-.61,1.56-1.39S21.29.58,20.13.58H18.45Z"/><polygon class="cls-1" points="27.67 6.21 27.67 6.64 23.73 6.64 23.73 0.15 27.61 0.15 27.61 0.58 24.24 0.58 24.24 3.1 27.45 3.1 27.45 3.54 24.24 3.54 24.24 6.21 27.67 6.21"/><path class="cls-1" d="M29.07.16h.6L33,5.4c.14.24.25.43.36.65h0c0-.21,0-.43,0-.73V.16h.47V6.64h-.61L29.88,1.37a6,6,0,0,1-.35-.65h0c0,.22,0,.43,0,.72v5.2h-.46Z"/><path class="cls-1" d="M35.13,3.4C35.13,1.31,36.26,0,38,0s2.88,1.31,2.88,3.4S39.74,6.8,38,6.8s-2.87-1.36-2.87-3.4m5.22,0c0-1.8-.89-3-2.35-3s-2.35,1.17-2.35,3,.9,3,2.35,3,2.35-1.18,2.35-3"/></svg>