<svg id="Capa_1" data-name="Capa 1" xmlns="http://www.w3.org/2000/svg" viewBox="0 0 416.66 40"><defs><style>.cls-1{fill:#003b33;}</style></defs><path class="cls-1" d="M95.53,27.21l1.71-.11c.16,6.25,4.27,11.17,12.77,11.17,6.95,0,11-3.47,11-8.76,0-6.1-3.63-7.86-9.08-8.82l-5.83-1.07c-5.56-1.07-8.93-4.23-8.93-9.3-.1-6.2,4.49-10.32,12-10.32,7.11,0,12.62,3.21,12.88,11.55l-1.71.16c-.32-7.38-4.59-10.27-11.22-10.27-6.47,0-10.32,3.48-10.21,8.82,0,4,2.46,7,8.07,7.91l5.77,1.07c5.67,1,10,3.37,10,10,0,7.05-5.51,10.53-12.94,10.53-9.19,0-14.06-5.29-14.32-12.56"/><path class="cls-1" d="M151.38,27.47H132.62l-4.28,11.39h-1.76L141.17.91h1.71l14.6,38h-1.82Zm-.59-1.55L144.17,8.45C143,5.24,142.51,4,142.08,2.57H142c-.42,1.39-.9,2.67-2.13,5.88l-6.63,17.47Z"/><path class="cls-1" d="M164.16.91h2.08l21.54,32.44c.75,1.13,1.34,2.09,2,3.16h.05c-.05-1.18-.05-2.35-.05-3.74V.91h1.66v38h-2L167.74,6.2c-.7-1.12-1.34-2.08-2-3.21h0c0,1.23.1,2.41.1,3.75V38.86h-1.65Z"/><rect class="cls-1" x="216" y="0.91" width="1.71" height="37.95"/><path class="cls-1" d="M225.94,19.78C225.94,8.34,231.71,0,242.19,0s13.58,7.38,14.22,11.6l-1.71.16C254,7.54,251.23,1.5,242,1.5S227.71,9,227.71,19.94c0,10,4.59,18.28,14.37,18.28,11.12,0,13.42-9.89,13.42-13.9v-3.1H241.92V19.67h15.24V38.86h-1.39l-.22-8.93c-1.87,6-6.89,9.84-13.79,9.84-10.26,0-15.82-8.71-15.82-20"/><path class="cls-1" d="M266.46.91h2.08l21.54,32.44c.75,1.13,1.34,2.09,2,3.16h.05c-.05-1.18-.05-2.35-.05-3.74V.91h1.66v38h-2L270,6.2c-.7-1.12-1.34-2.08-2-3.21H268c.05,1.23.1,2.41.1,3.75V38.86h-1.65Z"/><path class="cls-1" d="M325.14,27.47H306.38l-4.27,11.39h-1.77L314.94.91h1.71l14.59,38h-1.82Zm-.58-1.55L317.93,8.45c-1.18-3.21-1.66-4.49-2.09-5.88h-.1c-.43,1.39-.91,2.67-2.14,5.88L307,25.92Z"/><path class="cls-1" d="M333.91,19.78C333.91,8,339.79,0,350.48,0c8.82,0,13.74,5.67,14.65,13.47l-1.77.11c-.91-7.27-5.45-12.08-12.93-12.08-9.3,0-14.76,7.32-14.76,18.22,0,10.53,4.81,18.5,14.81,18.5,7.06,0,11.65-4.44,13-11.6l1.71.16c-1.44,7.16-5.67,13-14.81,13-11.54,0-16.46-9-16.46-20"/><rect class="cls-1" x="373.57" y="0.91" width="1.71" height="37.95"/><path class="cls-1" d="M383.51,19.88C383.51,7.75,390,0,400.08,0S416.6,7.75,416.6,19.88s-6.52,19.89-16.52,19.89-16.57-8-16.57-19.89m31.27,0c0-10.95-5.67-18.38-14.7-18.38s-14.81,7.43-14.81,18.38c0,10.75,5.72,18.39,14.81,18.39s14.7-7.43,14.7-18.39"/><polygon class="cls-1" points="10.34 1.25 5.72 1.25 5.72 14.18 4.64 14.18 4.64 1.25 0 1.25 0 0.33 10.34 0.33 10.34 1.25"/><polygon class="cls-1" points="20.62 13.27 20.62 14.18 12.21 14.18 12.21 0.33 20.49 0.33 20.49 1.25 13.29 1.25 13.29 6.61 20.16 6.61 20.16 7.55 13.29 7.55 13.29 13.27 20.62 13.27"/><path class="cls-1" d="M28.33,8.06H24.68v6.12H23.61V.33h4.76c3.45,0,4.37,1.93,4.37,3.85a3.57,3.57,0,0,1-3.26,3.74l3.69,6.26H31.94Zm-3.65-.92h3.61c2.4,0,3.32-1.31,3.32-3s-.84-2.93-3.32-2.93H24.68Z"/><path class="cls-1" d="M40.7,8.06H37.05v6.12H36V.33h4.76c3.46,0,4.37,1.93,4.37,3.85a3.57,3.57,0,0,1-3.26,3.74l3.69,6.26H44.31Zm-3.65-.92h3.61c2.4,0,3.32-1.31,3.32-3s-.84-2.93-3.32-2.93H37.05Z"/><polygon class="cls-1" points="56.76 13.27 56.76 14.18 48.35 14.18 48.35 0.33 56.63 0.33 56.63 1.25 49.43 1.25 49.43 6.61 56.29 6.61 56.29 7.55 49.43 7.55 49.43 13.27 56.76 13.27"/><path class="cls-1" d="M59.75.33H61l7.16,11.2c.29.51.52.92.76,1.38h0c0-.44,0-.91,0-1.54V.33h1V14.18H68.64L61.49,2.93a10.82,10.82,0,0,1-.77-1.39h0c0,.47,0,.92,0,1.54v11.1h-1Z"/><path class="cls-1" d="M72.69,7.26C72.69,2.79,75.1,0,78.83,0S85,2.79,85,7.26s-2.44,7.25-6.15,7.25-6.14-2.88-6.14-7.25m11.15,0c0-3.85-1.89-6.34-5-6.34s-5,2.49-5,6.34,1.93,6.34,5,6.34,5-2.52,5-6.34"/></svg>