<?xml version="1.0" encoding="utf-8"?>
<!-- Generator: Adobe Illustrator 25.4.1, SVG Export Plug-In . SVG Version: 6.00 Build 0)  -->
<svg version="1.1" id="Capa_1" xmlns="http://www.w3.org/2000/svg" xmlns:xlink="http://www.w3.org/1999/xlink" x="0px" y="0px"
	 viewBox="0 0 68 45" style="enable-background:new 0 0 68 45;" xml:space="preserve">
<style type="text/css">
	.st0{clip-path:url(#SVGID_00000055668152615651783610000004019917057812103865_);}
	.st1{fill:#003B33;}
</style>
<g>
	<defs>
		<rect id="SVGID_1_" width="68" height="45"/>
	</defs>
	<clipPath id="SVGID_00000000202675563879584100000010387730968189514640_">
		<use xlink:href="#SVGID_1_"  style="overflow:visible;"/>
	</clipPath>
	<g style="clip-path:url(#SVGID_00000000202675563879584100000010387730968189514640_);">
		<path class="st1" d="M68,42.7h-2.6v-0.9c0-4.5,0-9,0-13.4c0-1.1-0.4-1.4-1.4-1.5c-1,0-2,0-3,0V10.6c0-1.3-0.3-1.6-1.6-1.6H31.9
			V8.2c0-2.2,0-4.5,0-6.7c0-1.1-0.4-1.5-1.5-1.5H4.3C3.2,0,2.9,0.4,2.9,1.5c0,6.5,0,13,0,19.5c0,1.1,0.4,1.5,1.5,1.5c1,0,2,0,3,0V27
			H4.4c-1.2,0-1.6,0.3-1.6,1.6c0,4.5,0,8.9,0,13.4v0.8c-1,0-1.9,0-2.8,0V45c22.7,0,68,0,68,0L68,42.7z M31.9,20.9v-9.6h26.7v15.6
			h-4.4c0-0.2,0-0.4,0-0.7c0-1.9,0-3.8,0-5.7c0-1.1-0.4-1.5-1.4-1.5c-5,0-10,0-15.1,0c-1,0-1.4,0.4-1.4,1.4c0,2.1,0,4.3,0,6.4H9.6
			v-4.5h20.7C31.5,22.5,31.9,22.2,31.9,20.9z M51.9,21.4V27H38.6v-5.6H51.9z M5.1,20.2V2.3h24.5v17.9H5.1z M47.4,42.7h-2.1v-4.4h2.1
			V42.7z M56.3,42.7h-2.1v-4.4h2.1V42.7z M63,42.7h-4.4V42c0-1.6,0-3.2,0-4.8c0-0.8-0.4-1.3-1.2-1.3c-1.4,0-2.7,0-4.1,0
			c-0.9,0-1.3,0.4-1.3,1.3c0,1.8,0,3.6,0,5.4h-2.2v-5.1c0-1.3-0.3-1.6-1.6-1.6c-1.2,0-2.5,0-3.7,0c-1,0-1.3,0.4-1.4,1.4
			c0,1.8,0,3.5,0,5.3H5.1V29.3H63L63,42.7z"/>
		<path class="st1" d="M26.1,6.8c-1.3,0-2.7,0-4,0c-0.9,0-1.3,0.4-1.3,1.3c0,1,0,2.1,0,3.1c0,1.1,0,2.2,0,3.2c0,0.9,0.4,1.3,1.3,1.3
			c1.3,0,2.7,0,4,0c0.9,0,1.3-0.4,1.3-1.3c0-2.1,0-4.2,0-6.3C27.4,7.2,27,6.8,26.1,6.8z M25.1,13.5H23V9h2.1V13.5z"/>
	</g>
</g>
</svg>
